<svg width="32" height="32" viewBox="0 0 32 32" fill="none" xmlns="http://www.w3.org/2000/svg">
<path fill-rule="evenodd" clip-rule="evenodd" d="M14.1052 16.4798L4.35795 13.2307C2.00473 12.4463 0.828125 12.0541 0.828125 11.3333C0.828125 10.6126 2.00473 10.2204 4.35795 9.43598L27.8711 1.59826C29.5269 1.04633 30.3548 0.770364 30.7918 1.20738C31.2288 1.64439 30.9529 2.47228 30.4009 4.12806L30.4009 4.12808L22.5632 27.6412C21.7788 29.9945 21.3866 31.1711 20.6658 31.1711C19.9451 31.1711 19.5529 29.9945 18.7685 27.6413L15.5194 17.894L23.2063 10.2071C23.5968 9.8166 23.5968 9.18343 23.2063 8.79291C22.8158 8.40238 22.1826 8.40238 21.7921 8.79291L14.1052 16.4798Z" fill="white"/>
</svg>
