<svg width="188" height="188" viewBox="0 0 188 188" fill="none" xmlns="http://www.w3.org/2000/svg">
<rect opacity="0.1" width="188" height="188" rx="94" fill="#F900EF"/>
<path fill-rule="evenodd" clip-rule="evenodd" d="M95.8294 78.0036L108.38 65.4534C109.713 64.12 110.38 63.4534 111.208 63.4534C112.037 63.4534 112.703 64.12 114.037 65.4534L122.546 73.9632C123.88 75.2965 124.546 75.9632 124.546 76.7916C124.546 77.62 123.88 78.2867 122.546 79.62L110.071 92.0954C104.219 88.6347 99.331 83.7827 95.8294 78.0036ZM94.3753 79.4578L66.0228 107.81C65.5978 108.235 65.3852 108.448 65.2455 108.709C65.1058 108.97 65.0468 109.265 64.9289 109.854L61.7719 125.64C61.7053 125.972 61.6721 126.138 61.7667 126.233C61.8613 126.328 62.0276 126.294 62.3602 126.228L78.1455 123.071C78.735 122.953 79.0297 122.894 79.2908 122.754C79.5519 122.615 79.7644 122.402 80.1894 121.977L80.1895 121.977L108.613 93.5533C102.812 90.0286 97.938 85.1898 94.3753 79.4578Z" fill="#F900EF"/>
</svg>
