<svg width="96" height="40" viewBox="0 0 96 40" fill="none" xmlns="http://www.w3.org/2000/svg">
<path d="M0 35.0715V22.9931H2.0362V35.0715H0ZM0 20.7255V18.1803H2.0362V20.7255H0Z" fill="#FF5500"/>
<path d="M15.4398 35.0715H13.4036V28.315C13.4036 27.0347 13.2031 26.1014 12.802 25.5153C12.4163 24.9137 11.8225 24.6129 11.0203 24.6129C10.465 24.6129 9.90967 24.7517 9.35434 25.0294C8.81444 25.307 8.32853 25.6849 7.89661 26.1631C7.48011 26.6259 7.17931 27.1658 6.9942 27.7828V35.0715H4.95801V22.9932H6.8091V25.5847C7.13304 25.0139 7.54953 24.5203 8.05858 24.1038C8.56763 23.6873 9.14609 23.3634 9.79397 23.132C10.4419 22.9006 11.1206 22.7849 11.8302 22.7849C12.5243 22.7849 13.1028 22.916 13.5656 23.1783C14.0438 23.4251 14.414 23.7799 14.6762 24.2426C14.9539 24.69 15.1467 25.2222 15.2547 25.8392C15.3781 26.4562 15.4398 27.1273 15.4398 27.8523V35.0715Z" fill="#FF5500"/>
<path d="M25.0957 35.3029C24.1084 35.3029 23.2292 35.0561 22.4579 34.5625C21.6866 34.0688 21.0773 33.4441 20.6299 32.6882V40H18.5938V22.9932H20.3986V25.2607C20.8768 24.5203 21.5015 23.9264 22.2728 23.4791C23.0441 23.0163 23.8848 22.7849 24.7949 22.7849C25.6279 22.7849 26.3915 22.9546 27.0856 23.294C27.7798 23.6333 28.3814 24.0961 28.8904 24.6823C29.3995 25.2685 29.7928 25.9395 30.0705 26.6953C30.3636 27.4358 30.5101 28.2148 30.5101 29.0323C30.5101 30.1738 30.2787 31.2228 29.816 32.1792C29.3686 33.1356 28.7362 33.8991 27.9186 34.4699C27.101 35.0252 26.1601 35.3029 25.0957 35.3029ZM24.471 33.5444C25.0726 33.5444 25.6125 33.421 26.0907 33.1741C26.5843 32.9119 27.0008 32.5725 27.3401 32.156C27.6949 31.7241 27.9649 31.2382 28.15 30.6983C28.3351 30.1584 28.4277 29.6031 28.4277 29.0323C28.4277 28.4307 28.3197 27.86 28.1037 27.3201C27.9032 26.7802 27.6101 26.302 27.2244 25.8855C26.8542 25.469 26.4146 25.145 25.9055 24.9137C25.4119 24.6669 24.872 24.5434 24.2858 24.5434C23.9156 24.5434 23.53 24.6129 23.1289 24.7517C22.7433 24.8905 22.3731 25.0911 22.0183 25.3533C21.6635 25.6001 21.3627 25.8855 21.1159 26.2094C20.869 26.5334 20.7071 26.8804 20.6299 27.2507V30.6983C20.8613 31.2228 21.1698 31.701 21.5555 32.1329C21.9411 32.5648 22.3885 32.9119 22.8975 33.1741C23.4066 33.421 23.9311 33.5444 24.471 33.5444Z" fill="black"/>
<path d="M31.6934 31.5776C31.6934 30.8063 31.9093 30.143 32.3412 29.5877C32.7886 29.0169 33.3979 28.5773 34.1692 28.2688C34.9405 27.9602 35.8352 27.806 36.8533 27.806C37.3932 27.806 37.9639 27.8523 38.5655 27.9448C39.1671 28.0219 39.6993 28.1454 40.1621 28.315V27.4358C40.1621 26.5102 39.8844 25.7852 39.3291 25.2607C38.7738 24.7208 37.9871 24.4509 36.969 24.4509C36.3057 24.4509 35.6655 24.5743 35.0485 24.8211C34.4469 25.0525 33.8067 25.3919 33.128 25.8392L32.3875 24.4046C33.1742 23.8647 33.9609 23.4636 34.7477 23.2014C35.5344 22.9237 36.3519 22.7849 37.2003 22.7849C38.7429 22.7849 39.9615 23.2168 40.8562 24.0807C41.7509 24.9291 42.1983 26.1169 42.1983 27.644V32.7576C42.1983 33.0045 42.2446 33.1896 42.3371 33.313C42.4451 33.421 42.6148 33.4827 42.8462 33.4981V35.0715C42.6456 35.1024 42.4682 35.1255 42.314 35.1409C42.1751 35.1563 42.0594 35.1641 41.9669 35.1641C41.4887 35.1641 41.1262 35.0329 40.8794 34.7707C40.648 34.5085 40.5169 34.2308 40.486 33.9377L40.4397 33.1741C39.9153 33.8529 39.2288 34.3773 38.3804 34.7476C37.532 35.1178 36.6913 35.3029 35.8583 35.3029C35.0562 35.3029 34.3389 35.1409 33.7064 34.817C33.074 34.4776 32.5803 34.0303 32.2255 33.4749C31.8708 32.9042 31.6934 32.2717 31.6934 31.5776ZM39.5605 32.4337C39.7456 32.2177 39.8921 32.0018 40.0001 31.7858C40.1081 31.5544 40.1621 31.3616 40.1621 31.2074V29.7034C39.6839 29.5182 39.1825 29.3794 38.6581 29.2869C38.1336 29.1789 37.6168 29.1249 37.1078 29.1249C36.0743 29.1249 35.2336 29.3331 34.5857 29.7496C33.9532 30.1507 33.637 30.706 33.637 31.4156C33.637 31.8012 33.7373 32.1792 33.9378 32.5494C34.1538 32.9042 34.4623 33.1973 34.8633 33.4287C35.2798 33.66 35.7889 33.7757 36.3905 33.7757C37.0229 33.7757 37.6246 33.6523 38.1953 33.4055C38.7661 33.1433 39.2211 32.8193 39.5605 32.4337Z" fill="black"/>
<path d="M59.9622 34.4699C59.7925 34.547 59.5611 34.6473 59.268 34.7707C58.9749 34.8941 58.6356 35.0021 58.2499 35.0946C57.8643 35.1872 57.4555 35.2335 57.0236 35.2335C56.53 35.2335 56.0749 35.1486 55.6584 34.9789C55.2419 34.7938 54.9103 34.5162 54.6634 34.146C54.4166 33.7603 54.2932 33.2821 54.2932 32.7114V24.5897H52.6504V22.9932H54.2932V18.967H56.3294V22.9932H59.0366V24.5897H56.3294V32.0866C56.3603 32.5185 56.5068 32.8425 56.7691 33.0584C57.0313 33.259 57.3398 33.3592 57.6946 33.3592C58.0957 33.3592 58.4659 33.2898 58.8053 33.151C59.1446 33.0122 59.3683 32.9119 59.4763 32.8502L59.9622 34.4699Z" fill="black"/>
<path d="M72.0472 35.0715H70.011V28.315C70.011 27.0347 69.8105 26.1014 69.4094 25.5153C69.0238 24.9137 68.4299 24.6129 67.6277 24.6129C67.0724 24.6129 66.5171 24.7517 65.9618 25.0294C65.4219 25.307 64.936 25.6849 64.504 26.1631C64.0875 26.6259 63.7867 27.1658 63.6016 27.7828V35.0715H61.5654V22.9932H63.4165V25.5847C63.7405 25.0139 64.157 24.5203 64.666 24.1038C65.1751 23.6873 65.7535 23.3634 66.4014 23.132C67.0493 22.9006 67.728 22.7849 68.4376 22.7849C69.1317 22.7849 69.7102 22.916 70.173 23.1783C70.6512 23.4251 71.0214 23.7799 71.2836 24.2426C71.5613 24.69 71.7541 25.2222 71.8621 25.8392C71.9855 26.4562 72.0472 27.1273 72.0472 27.8523V35.0715Z" fill="black"/>
<path d="M80.5455 35.3029C79.6354 35.3029 78.8024 35.1409 78.0465 34.817C77.3061 34.4776 76.6582 34.0226 76.1029 33.4518C75.563 32.8656 75.1388 32.1946 74.8303 31.4387C74.5372 30.6829 74.3906 29.8807 74.3906 29.0323C74.3906 27.8908 74.6529 26.8496 75.1773 25.9086C75.7018 24.9677 76.4268 24.2118 77.3524 23.641C78.2933 23.0703 79.3654 22.7849 80.5686 22.7849C81.7873 22.7849 82.8439 23.078 83.7386 23.6642C84.6487 24.2349 85.3506 24.9908 85.8442 25.9318C86.3533 26.8573 86.6078 27.86 86.6078 28.9398C86.6078 29.094 86.6001 29.2483 86.5847 29.4025C86.5847 29.5414 86.5769 29.6494 86.5615 29.7265H76.5425C76.6042 30.5132 76.8202 31.2151 77.1904 31.8321C77.576 32.4337 78.0697 32.9119 78.6713 33.2667C79.2729 33.6061 79.9207 33.7757 80.6149 33.7757C81.3553 33.7757 82.0495 33.5906 82.6974 33.2204C83.3607 32.8502 83.8157 32.3643 84.0626 31.7627L85.8211 32.2486C85.5589 32.8348 85.1655 33.3592 84.641 33.822C84.132 34.2848 83.5227 34.6473 82.8131 34.9095C82.1189 35.1718 81.3631 35.3029 80.5455 35.3029ZM76.4731 28.315H84.7104C84.6487 27.5283 84.4251 26.8342 84.0394 26.2326C83.6538 25.631 83.1602 25.1605 82.5585 24.8211C81.9569 24.4817 81.2936 24.3121 80.5686 24.3121C79.859 24.3121 79.2035 24.4817 78.6018 24.8211C78.0002 25.1605 77.5066 25.631 77.121 26.2326C76.7508 26.8342 76.5348 27.5283 76.4731 28.315Z" fill="black"/>
<path fill-rule="evenodd" clip-rule="evenodd" d="M90.902 22.7254H88.836C88.836 11.3155 79.5865 2.06595 68.1766 2.06595C56.7667 2.06595 47.5171 11.3155 47.5171 22.7254H45.4512C45.4512 10.1745 55.6257 0 68.1766 0C80.7275 0 90.902 10.1745 90.902 22.7254ZM51.8374 24.7748C50.8193 24.7902 49.9169 25.0525 49.1302 25.5615C48.3589 26.0552 47.8113 26.7416 47.4874 27.6209V35.0715H45.4512V22.7254H47.5171L47.3485 25.7929C47.765 24.9599 48.3126 24.2889 48.9914 23.7799C49.6855 23.2554 50.4105 22.9623 51.1664 22.9006H51.5598C51.6677 22.9006 51.7603 22.9083 51.8374 22.9237V24.7748ZM95.2223 24.7748C94.2042 24.7902 93.3018 25.0525 92.5151 25.5615C91.7438 26.0552 91.1962 26.7416 90.8722 27.6209V35.0715H88.836L88.8361 22.7254H90.902L90.7334 25.7929C91.1499 24.9599 91.6975 24.2889 92.3763 23.7799C93.0704 23.2554 93.7954 22.9623 94.5513 22.9006H94.9446C95.0526 22.9006 95.1452 22.9083 95.2223 22.9237V24.7748Z" fill="#FF5500"/>
</svg>
